<?xml version="1.0" encoding="UTF-8"?>
<svg id="Layer_1" data-name="Layer 1" xmlns="http://www.w3.org/2000/svg" viewBox="0 0 430 103.04">
  <path d="m110.38,0v103.03h-22.08v-54.75l-23.99,54.75h-18.54l-23.7-54.46v54.46H0V0h21.19l34,74.33L89.19,0S110.38,0,110.38,0Zm38.15,83.3h43.57v19.72h-65.05V0h63.73v19.72h-42.24v21.78h31.94v19.43h-31.94v22.37h0Z" fill="#111"/>
  <g id="SvgjsG2652">
    <path d="m208.78.16h50.72v16.81c0,.24-.12.36-.36.36h-30.1v22.34h27.01v.14c0,.67-.12,4.31-.36,10.92-.1,0-.14.07-.14.22h1.22v5.17h-23.42v21.12h-6.25v2.08h6.25v6.39h26.51v2.44h-2.08v12.64h-31.68v2.23h-15.09v-36.86h-2.23v-13h-16.45v-2.23h16.45V.16h0Zm3.14,50.79v2.23h8.48v-2.23h-8.48Zm46.93,38.22h1.01v.22c0,2.06-.17,3.09-.5,3.09s-.5-.74-.5-2.23v-1.08h-.01Zm0,3.45h1.01v1.08h-1.01v-1.08ZM274.1,0h22.99c2.54,9.24,7.76,27.75,15.66,55.53h9.05c.24,0,1.22-3.33,2.95-9.99,3.83-13.07,8.12-28.26,12.86-45.55h21.26v66.81h1.22v12.21h-6.47v2.23h6.47v21.77h-18.1v-7.97h2.23v-24.71h-3.81v-12.36h-2.3l-.14.65h-1.94v17.6h-6.25v8.19h-5.39v13.94h-12.72v-8.91h-7.83v-12.21h-4.67v-12.64h-2.66c-.1-.72-.67-2.92-1.72-6.61h18.25l-.5-2.44h-18.25l.5,2.44h-2.44v15.95h1.22v17.6h-4.53v3.16h4.53v4.67h-16.38v-21.19h-3.09V0h0Zm18.1,48.21v1.22c0,1.05.05,3.09.14,6.11h1.72c-1.15-4.65-1.72-7.09-1.72-7.33h-.14Zm48.21.14l-1.58,7.18h1.58c.1-2.97.14-5.12.14-6.47v-.72h-.14Zm-53.95,7.19v2.44h5.75v-2.44h-5.75Zm35.63,0l-.5,2.44h16.38c.48-1.29.72-2.11.72-2.44h-16.6Zm18.46,0v2.44h12.57v-2.44h-12.57Zm-27.16,2.44c.81,3.69,1.34,5.53,1.58,5.53h2.08v9.2h3.3v-14.22h.86v-.5h-7.83.01Zm46.7,21.04h10.42v2.23h-10.42v-2.23Zm-87.57,21.19h18.46v1.58h-18.46v-1.58ZM378.92.16h50.72v16.81c0,.24-.12.36-.36.36h-30.1v22.34h27.01v.14c0,.67-.12,4.31-.36,10.92-.1,0-.14.07-.14.22h1.22v5.17h-23.42v21.12h-6.25v2.08h6.25v6.39h26.51v2.44h-2.08v12.64h-31.68v2.23h-15.09v-36.86h-2.23v-13h-16.45v-2.23h16.45V.16h0Zm-5.86,50.79v2.23h8.48v-2.23h-8.48Zm55.38,38.22h1.01v.22c0,2.06-.17,3.09-.5,3.09s-.5-.74-.5-2.23v-1.08h-.01Zm0,3.45h1.01v1.08h-1.01v-1.08Z" fill="#111"/>
  </g>
  <g isolation="isolate">
    <text transform="translate(404.09 85.05)" font-family="MarkerFelt-Wide, &apos;Marker Felt&apos;" font-size="5" isolation="isolate" letter-spacing=".04em"><tspan x="0" y="0">M</tspan></text>
    <text transform="translate(408.98 85.05)" font-family="MarkerFelt-Wide, &apos;Marker Felt&apos;" font-size="5" isolation="isolate"><tspan x="0" y="0">E</tspan></text>
  </g>
  <g isolation="isolate">
    <text transform="translate(360.73 81.68) rotate(90)" fill="#231f20" font-family="PTSans-Bold, &apos;PT Sans&apos;" font-size="5" font-weight="700" isolation="isolate"><tspan x="0" y="0">M</tspan></text>
    <text transform="translate(360.73 81.68) rotate(90)" fill="none" font-family="PTSans-Bold, &apos;PT Sans&apos;" font-size="5" font-weight="700" isolation="isolate" stroke="#231f20" stroke-miterlimit="10" stroke-width=".2"><tspan x="0" y="0">M</tspan></text>
    <text transform="translate(360.73 86.68) rotate(90)" fill="#231f20" font-family="PTSans-Bold, &apos;PT Sans&apos;" font-size="5" font-weight="700" isolation="isolate"><tspan x="0" y="0" xml:space="preserve">    </tspan></text>
    <text transform="translate(360.73 86.68) rotate(90)" fill="none" font-family="PTSans-Bold, &apos;PT Sans&apos;" font-size="5" font-weight="700" isolation="isolate" stroke="#231f20" stroke-miterlimit="10" stroke-width=".2"><tspan x="0" y="0"> </tspan></text>
    <text transform="translate(360.73 90.78) rotate(90)" fill="#231f20" font-family="PTSans-Bold, &apos;PT Sans&apos;" font-size="5" font-weight="700" isolation="isolate"><tspan x="0" y="0">M</tspan></text>
    <text transform="translate(360.73 90.78) rotate(90)" fill="none" font-family="PTSans-Bold, &apos;PT Sans&apos;" font-size="5" font-weight="700" isolation="isolate" stroke="#231f20" stroke-miterlimit="10" stroke-width=".2"><tspan x="0" y="0">M</tspan></text>
  </g>
  <g isolation="isolate">
    <text transform="translate(360.73 86.07) rotate(90)" font-family="Futura-Bold, Futura" font-size="5" font-weight="700" isolation="isolate"><tspan x="0" y="0">E</tspan></text>
    <text transform="translate(360.73 91.07) rotate(90)" font-family="Futura-Bold, Futura" font-size="5" font-weight="700" isolation="isolate"><tspan x="0" y="0" xml:space="preserve">  </tspan></text>
  </g>
  <g isolation="isolate">
    <text transform="translate(360.73 95.19) rotate(90)" font-family="Futura-Bold, Futura" font-size="5" font-weight="700" isolation="isolate"><tspan x="0" y="0">E</tspan></text>
  </g>
  <g isolation="isolate">
    <text transform="translate(234.11 85.05)" font-family="MarkerFelt-Wide, &apos;Marker Felt&apos;" font-size="5" isolation="isolate" letter-spacing=".04em"><tspan x="0" y="0">M</tspan></text>
    <text transform="translate(239 85.05)" font-family="MarkerFelt-Wide, &apos;Marker Felt&apos;" font-size="5" isolation="isolate"><tspan x="0" y="0">E</tspan></text>
  </g>
</svg>